<svg xmlns="http://www.w3.org/2000/svg" viewBox="0 0 64 64" role="img" aria-label="Japan Talent Desk">
  <rect width="64" height="64" rx="8" fill="#123226"/>
  <rect x="8.5" y="8.5" width="47" height="47" rx="3.5" fill="none" stroke="#D8C391"/>
  <path d="M35.8 18.5c-1.6-.7-3.4-1.1-5.2-1.1-5.6 0-9.5 3.1-9.5 7.5 0 4.1 3.1 6.2 8.6 7.8 4.3 1.3 6 2.4 6 4.9 0 2.8-2.5 4.6-6.2 4.6-2.9 0-5.8-1-8.1-2.8l-1.8 3.3c2.6 2.1 6.2 3.3 9.8 3.3 6.1 0 10.2-3.3 10.2-8.3 0-4.4-3.2-6.6-8.9-8.3-4.2-1.3-5.8-2.3-5.8-4.6 0-2.4 2.2-3.9 5.6-3.9 2.4 0 4.8.7 6.8 2l1.5-3.3c-.9-.4-1.9-.8-3-1.1Z" fill="#FFFAF0"/>
</svg>
